<?xml version="1.0" encoding="utf-8"?>
<!-- Generator: Adobe Illustrator 24.1.2, SVG Export Plug-In . SVG Version: 6.00 Build 0)  -->
<svg version="1.1" id="image" xmlns="http://www.w3.org/2000/svg" xmlns:xlink="http://www.w3.org/1999/xlink" x="0px" y="0px"
	 viewBox="0 0 4000 4000" style="enable-background:new 0 0 4000 4000;" xml:space="preserve">
<style type="text/css">
	.st0{fill:#AF0505;}
</style>
<g>
	<g>
		<path class="st0" d="M604.19,764.42C568.97,913.71,533.75,1063,498.53,1212.3c-35.05,148.55-70.09,297.1-105.14,445.65
			c-35.22,149.29-70.44,298.59-105.66,447.88c-35.05,148.55-70.09,297.1-105.14,445.65c-35.22,149.29-70.44,298.59-105.66,447.88
			c-4.38,18.57-8.76,37.14-13.14,55.71c-9.38,29.91-10.72,59.81-4.02,89.72c1.36,29.94,10.26,57.83,26.7,83.66
			c14.14,26.22,33.46,47.26,57.95,63.13c21.73,19.89,47.24,33.31,76.52,40.27c19.94,2.68,39.88,5.36,59.81,8.04
			c40.61-0.13,78.47-10.37,113.56-30.72c48.27-31.12,89.85-77.03,103.4-134.47c35.22-149.29,70.44-298.59,105.66-447.88
			c35.05-148.55,70.09-297.1,105.14-445.65c35.22-149.29,70.44-298.59,105.66-447.88c35.05-148.55,70.09-297.1,105.14-445.65
			c35.22-149.29,70.44-298.59,105.66-447.88c4.38-18.57,8.76-37.14,13.14-55.71c9.38-29.91,10.72-59.81,4.02-89.72
			c-1.36-29.94-10.26-57.83-26.7-83.65c-14.14-26.22-33.46-47.26-57.95-63.13c-21.73-19.89-47.24-33.31-76.52-40.27
			c-19.94-2.68-39.88-5.36-59.81-8.04c-40.61,0.13-78.47,10.37-113.56,30.72C659.33,661.07,617.74,706.98,604.19,764.42
			L604.19,764.42z"/>
	</g>
</g>
<g>
	<g>
		<path class="st0" d="M963.56,1021.76c86.51-19.26,173.2-38.27,261.09-50.19c-19.94,2.68-39.88,5.36-59.81,8.04
			c90.01-12.05,181.37-16.37,271.64-4.39c-19.94-2.68-39.88-5.36-59.81-8.04c56.29,7.67,111.65,21.4,164.05,43.49
			c-17.92-7.56-35.83-15.12-53.75-22.68c48.78,20.73,94.62,47.86,136.61,80.17c-15.18-11.73-30.36-23.45-45.54-35.18
			c43.21,33.45,82.07,72.24,115.55,115.42c-11.73-15.18-23.45-30.36-35.18-45.54c33.07,42.93,60.57,89.89,81.65,139.81
			c-7.56-17.92-15.12-35.83-22.68-53.75c21.03,50.25,35.33,103.03,42.73,157c-2.68-19.94-5.36-39.88-8.04-59.81
			c7.97,59.79,7.37,120.39-0.64,180.15c2.68-19.94,5.36-39.88,8.04-59.81c-9,65.55-26.77,129.68-52.39,190.67
			c7.56-17.92,15.12-35.83,22.68-53.75c-23.92,56.46-54.46,110.06-91.83,158.71c11.73-15.18,23.45-30.36,35.18-45.54
			c-34.88,45.12-75.61,85.54-120.63,120.52c15.18-11.73,30.36-23.45,45.54-35.18c-49.37,38.1-103.66,69.28-161.08,93.55
			c17.92-7.56,35.83-15.12,53.75-22.68c-64.82,27.19-133.71,46.42-203.4,55.92c19.94-2.68,39.88-5.36,59.81-8.04
			c-40.48,5.43-81.48,6.95-122.27,7.58c-51.07,0.79-102.16-0.25-153.2-2.08c-105.89-3.8-211.67-11.05-317.25-19.88
			c-45.18-3.78-90.33-7.88-135.45-12.37c-30.98-1.17-59.87,5.29-86.69,19.38c-27.89,9.07-52.03,24.58-72.41,46.52
			c-21.94,20.38-37.45,44.52-46.52,72.41c-14.09,26.81-20.55,55.71-19.38,86.69c2.68,19.94,5.36,39.88,8.04,59.81
			c10.69,38.12,29.98,71.21,57.86,99.29c15.18,11.73,30.36,23.45,45.54,35.18c35.09,20.35,72.95,30.59,113.56,30.72
			c79.08,7.87,158.27,14.63,237.54,20.31c96.49,6.91,193.17,12.39,289.91,13.92c42.7,0.68,85.44,0.61,128.11-1.38
			c56.38-2.63,112.75-9.6,168.19-20.06c54.25-10.24,107.6-25.52,158.76-46.32c70.31-28.58,138.53-58.76,200.62-102.8
			c62.6-44.41,123-93.02,172.51-151.99c47.21-56.22,90.83-115.64,123.69-181.43c21.07-42.18,39.41-85.95,55.69-130.17
			c9.99-27.14,18.45-54.85,25.28-82.96c11.56-47.58,17.61-96.24,23.5-144.79c3.53-29.1,5.27-58.43,5.09-87.75
			c-0.31-49-7.42-97.05-14.24-145.54c-3.9-27.68-9.64-55.09-17.22-81.99c-12.37-43.92-30.6-85.3-48.51-127.25
			c-10.22-23.93-21.83-47.24-34.92-69.73c-12.83-22.03-27-43.27-42.4-63.58c-26.33-34.73-52.5-69.68-82.67-101.22
			c-17.03-17.8-35.09-34.61-54.05-50.33c-32.81-27.21-66.68-53.78-102.36-77.23c-55.1-36.2-116.54-63.04-178.27-85.55
			c-25.22-9.2-51.09-16.46-77.29-22.25c-51.34-11.34-103.99-18.12-156.31-22.63c-67.01-5.78-134.51-3.13-201.28,4.33
			c-86.53,9.67-172.32,23.46-257.51,41.27c-32.33,6.76-64.59,13.9-96.83,21.08c-29.28,6.96-54.79,20.39-76.52,40.27
			c-24.49,15.87-43.81,36.91-57.95,63.13c-16.44,25.83-25.34,53.71-26.7,83.65c-6.7,29.91-5.36,59.81,4.02,89.72
			c7.56,17.92,15.12,35.83,22.68,53.75c20,33.81,46.91,60.72,80.72,80.72c17.92,7.56,35.83,15.12,53.75,22.68
			C883.81,1032.48,923.68,1032.48,963.56,1021.76L963.56,1021.76z"/>
	</g>
</g>
<g>
	<g>
		<path class="st0" d="M1039.8,2227.96c31.3,58.23,62.59,116.47,93.89,174.7c36.16,67.28,72.31,134.56,108.47,201.84
			c37.78,70.29,75.55,140.59,113.33,210.89c36.53,67.98,73.07,135.96,109.6,203.94c31.95,59.46,63.91,118.92,95.86,178.38
			c3.52,6.54,7.03,13.08,10.55,19.63c14.14,26.22,33.46,47.26,57.95,63.13c21.73,19.89,47.24,33.31,76.52,40.27
			c29.91,9.38,59.81,10.72,89.72,4.02c29.94-1.36,57.83-10.26,83.65-26.7c15.18-11.73,30.36-23.45,45.54-35.18
			c27.89-28.07,47.17-61.17,57.86-99.29c2.68-19.94,5.36-39.88,8.04-59.81c-0.13-40.61-10.37-78.47-30.72-113.56
			c-31.3-58.23-62.59-116.47-93.89-174.7c-36.16-67.28-72.31-134.56-108.47-201.84c-37.78-70.3-75.55-140.59-113.33-210.89
			c-36.53-67.98-73.07-135.96-109.6-203.94c-31.95-59.46-63.91-118.92-95.86-178.38c-3.52-6.54-7.03-13.08-10.55-19.63
			c-14.14-26.22-33.46-47.26-57.95-63.13c-21.73-19.89-47.24-33.31-76.52-40.27c-29.91-9.38-59.81-10.72-89.72-4.02
			c-29.94,1.36-57.83,10.26-83.65,26.7c-15.18,11.73-30.36,23.45-45.54,35.18c-27.89,28.07-47.17,61.17-57.86,99.29
			c-2.68,19.94-5.36,39.88-8.04,59.81C1009.21,2155.01,1019.45,2192.86,1039.8,2227.96L1039.8,2227.96z"/>
	</g>
</g>
<g>
	<g>
		<path class="st0" d="M2371.81,1094.89c96.38,15.63,193.48,27.75,290.68,37.09c85.92,8.25,172.06,14.22,258.27,18.57
			c89.62,4.52,179.32,7.27,269.05,8.43c86.94,1.13,173.9,0.76,260.83-1.31c79-1.88,157.98-5.14,236.82-10.52
			c9.1-0.62,18.19-1.27,27.29-1.96c30.98,1.17,59.87-5.29,86.69-19.38c27.89-9.07,52.03-24.58,72.41-46.52
			c21.94-20.38,37.45-44.52,46.52-72.41c14.09-26.81,20.55-55.71,19.38-86.69c-2.68-19.94-5.36-39.88-8.04-59.81
			c-10.69-38.12-29.98-71.21-57.86-99.29c-15.18-11.73-30.36-23.45-45.54-35.18c-35.09-20.35-72.95-30.59-113.56-30.72
			c-71.59,5.36-143.31,8.85-215.06,11.12c-79.52,2.51-159.09,3.51-238.65,3.24c-82.93-0.28-165.86-1.93-248.73-5.01
			c-81.84-3.04-163.64-7.46-245.31-13.63c-76.59-5.79-153.09-13.09-229.3-22.75c-8.74-1.11-17.49-2.25-26.22-3.43
			c19.94,2.68,39.88,5.36,59.81,8.04c-26.67-3.6-53.29-7.5-79.85-11.81c-29.91-9.38-59.81-10.72-89.72-4.02
			c-29.94,1.36-57.83,10.26-83.65,26.7c-26.22,14.14-47.26,33.46-63.13,57.95c-19.89,21.73-33.31,47.24-40.27,76.52
			c-2.68,19.94-5.36,39.88-8.04,59.81c0.13,40.61,10.37,78.47,30.72,113.56c11.73,15.18,23.45,30.36,35.18,45.54
			C2300.6,1064.91,2333.7,1084.2,2371.81,1094.89L2371.81,1094.89z"/>
	</g>
</g>
<g>
	<g>
		<path class="st0" d="M2355.22,3166.09c94.03-138.82,190.98-275.65,289.46-411.34c101.87-140.37,205.4-279.52,309.46-418.27
			c105.32-140.43,211.21-280.43,316.66-420.77c104.46-139.03,208.51-278.37,311.05-418.82c99.4-136.15,197.41-273.34,292.65-412.45
			c11.55-16.87,23.05-33.77,34.52-50.7c16.44-25.83,25.34-53.71,26.7-83.65c6.7-29.91,5.36-59.81-4.02-89.72
			c-6.96-29.28-20.39-54.79-40.27-76.52c-15.86-24.49-36.91-43.81-63.13-57.95c-17.92-7.56-35.83-15.12-53.75-22.68
			c-39.88-10.72-79.75-10.72-119.63,0c-17.92,7.56-35.83,15.12-53.75,22.68c-33.81,20-60.72,46.91-80.72,80.72
			c-94.03,138.82-190.98,275.65-289.46,411.34c-101.87,140.37-205.4,279.52-309.46,418.27
			c-105.32,140.43-211.21,280.43-316.66,420.77c-104.46,139.03-208.51,278.37-311.05,418.82
			c-99.4,136.15-197.41,273.34-292.65,412.45c-11.55,16.87-23.05,33.77-34.52,50.7c-16.44,25.83-25.34,53.71-26.7,83.65
			c-6.7,29.91-5.36,59.81,4.02,89.72c6.96,29.28,20.39,54.79,40.27,76.52c15.86,24.49,36.91,43.81,63.13,57.95
			c17.92,7.56,35.83,15.12,53.75,22.68c39.88,10.72,79.75,10.72,119.63,0c17.92-7.56,35.83-15.12,53.75-22.68
			C2308.32,3226.81,2335.22,3199.9,2355.22,3166.09L2355.22,3166.09z"/>
	</g>
</g>
<g>
	<g>
		<path class="st0" d="M2160.94,3277.53c94.7-3.65,189.4-7.29,284.1-10.94c104.19-4.01,208.37-8.02,312.56-12.04
			c107.15-4.13,214.3-8.25,321.46-12.38c104.92-4.04,209.85-8.08,314.77-12.12c96.18-3.7,192.35-7.41,288.53-11.11
			c10.79-0.42,21.58-0.83,32.38-1.25c30.98,1.17,59.87-5.29,86.69-19.38c27.89-9.07,52.03-24.58,72.41-46.52
			c21.94-20.38,37.45-44.52,46.52-72.41c14.09-26.81,20.55-55.71,19.38-86.69c-2.68-19.94-5.36-39.88-8.04-59.81
			c-10.69-38.12-29.98-71.21-57.86-99.29c-15.18-11.73-30.36-23.45-45.54-35.18c-35.09-20.35-72.95-30.59-113.56-30.72
			c-94.7,3.65-189.4,7.29-284.1,10.94c-104.19,4.01-208.37,8.02-312.56,12.04c-107.15,4.13-214.3,8.25-321.46,12.38
			c-104.92,4.04-209.85,8.08-314.77,12.12c-96.18,3.7-192.35,7.41-288.53,11.11c-10.79,0.42-21.58,0.83-32.38,1.25
			c-30.98-1.17-59.87,5.29-86.69,19.38c-27.89,9.07-52.03,24.58-72.41,46.52c-21.94,20.38-37.45,44.52-46.52,72.41
			c-14.09,26.81-20.55,55.71-19.38,86.69c2.68,19.94,5.36,39.88,8.04,59.81c10.69,38.12,29.98,71.21,57.86,99.29
			c15.18,11.73,30.36,23.45,45.54,35.18C2082.48,3267.17,2120.33,3277.41,2160.94,3277.53L2160.94,3277.53z"/>
	</g>
</g>
</svg>
